<svg xmlns="http://www.w3.org/2000/svg" width="16" height="16">
<path d="M 3 0 L 3 16 L 4 16 L 10 16 L 10 14 L 6 14 L 7 13 L 9 13 L 10 14 L 10 12 L 10 10 L 11 9 L 11 10 L 12 10 L 13 10 L 13 0 L 12 0 L 4 0 L 3 0 z M 4 1 L 6 1 L 6 2 L 4 2 L 4 1 z M 10 1 L 12 1 L 12 2 L 10 2 L 10 1 z M 4 3 L 6 3 L 6 4 L 4 4 L 4 3 z M 7 3 L 9 3 L 9 4 L 7 4 L 7 3 z M 10 3 L 12 3 L 12 4 L 10 4 L 10 3 z M 4 5 L 6 5 L 6 6 L 4 6 L 4 5 z M 7 5 L 9 5 L 9 6 L 7 6 L 7 5 z M 10 5 L 12 5 L 12 6 L 10 6 L 10 5 z M 6 8 L 10 8 L 9 9 L 7 9 L 6 8 z M 5 9 L 6 10 L 6 12 L 5 13 L 5 9 z M 11 11 L 11 16 L 16 16 L 16 11 L 11 11 z M 12 12 L 13 12 L 13 13 L 14 13 L 14 12 L 15 12 L 15 14 L 14 14 L 14 15 L 13 15 L 13 14 L 12 14 L 12 12 z " fill="#c0bfbc" />
</svg>
