<svg xmlns="http://www.w3.org/2000/svg" width="16" height="16">
  <path d="M 5 0 C 3.892 0 3 0.892 3 2 L 3 3 C 3 4.108 3.892 5 5 5 L 11 5 C 12.108 5 13 4.108 13 3 L 13 2 C 13 0.892 12.108 0 11 0 L 5 0 z M 6.5 1 C 6.777 1 7 1.223 7 1.5 C 7 1.777 6.777 2 6.5 2 C 6.223 2 6 1.777 6 1.5 C 6 1.223 6.223 1 6.5 1 z M 8.5 1 C 8.777 1 9 1.223 9 1.5 C 9 1.777 8.777 2 8.5 2 C 8.223 2 8 1.777 8 1.5 C 8 1.223 8.223 1 8.5 1 z M 10.5 1 C 10.777 1 11 1.223 11 1.5 C 11 1.777 10.777 2 10.5 2 C 10.223 2 10 1.777 10 1.5 C 10 1.223 10.223 1 10.5 1 z M 5.5761719 2 C 5.8531719 2 6.0761719 2.223 6.0761719 2.5 C 6.0761719 2.777 5.8531719 3 5.5761719 3 C 5.2991719 3 5.0761719 2.777 5.0761719 2.5 C 5.0761719 2.223 5.2991719 2 5.5761719 2 z M 7.5761719 2 C 7.8531719 2 8.0761719 2.223 8.0761719 2.5 C 8.0761719 2.777 7.8531719 3 7.5761719 3 C 7.2991719 3 7.0761719 2.777 7.0761719 2.5 C 7.0761719 2.223 7.2991719 2 7.5761719 2 z M 9.5761719 2 C 9.8531719 2 10.076172 2.223 10.076172 2.5 C 10.076172 2.777 9.8531719 3 9.5761719 3 C 9.2991719 3 9.0761719 2.777 9.0761719 2.5 C 9.0761719 2.223 9.2991719 2 9.5761719 2 z M 6.3867188 3 C 6.6637188 3 6.8867187 3.223 6.8867188 3.5 C 6.8867187 3.777 6.6637188 4 6.3867188 4 C 6.1097187 4 5.8867187 3.777 5.8867188 3.5 C 5.8867186 3.223 6.1097187 3 6.3867188 3 z M 8.3867188 3 C 8.6637185 3 8.8867188 3.223 8.8867188 3.5 C 8.8867188 3.777 8.6637185 4 8.3867188 4 C 8.1097186 4 7.8867188 3.777 7.8867188 3.5 C 7.8867188 3.223 8.1097186 3 8.3867188 3 z M 10.386719 3 C 10.663719 3 10.886719 3.223 10.886719 3.5 C 10.886719 3.777 10.663719 4 10.386719 4 C 10.109719 4 9.8867188 3.777 9.8867188 3.5 C 9.8867188 3.223 10.109719 3 10.386719 3 z M 3 4 L 3 14 C 3 15.108 3.892 16 5 16 L 10 16 L 10 15 L 5 15 C 4.446 15 4 14.554 4 14 L 4 6.7246094 C 4.2950013 6.8957089 4.6330699 7 5 7 L 11 7 C 11.36693 7 11.704999 6.8957089 12 6.7246094 L 12 10 L 13 10 L 13 4 C 13 5.108 12.108 6 11 6 L 5 6 C 3.892 6 3 5.108 3 4 z M 5 10 L 5 13 C 5 13.554 5.446 14 6 14 L 10 14 L 10 10 L 5 10 z M 11 11 L 11 16 L 16 16 L 16 11 L 11 11 z M 12 12 L 13 12 L 13 13 L 14 13 L 14 12 L 15 12 L 15 14 L 14 14 L 14 15 L 13 15 L 13 14 L 12 14 L 12 12 z " fill="#c0bfbc" />
</svg>
