<?xml version="1.0" encoding="UTF-8"?>
<svg enable-background="new" version="1.0" viewBox="0 0 128 128" xmlns="http://www.w3.org/2000/svg" xmlns:xlink="http://www.w3.org/1999/xlink">
<defs>
<linearGradient id="a" x1="36" x2="92" y1="280" y2="280" gradientUnits="userSpaceOnUse">
<stop offset="0"/>
<stop stop-color="#241f31" offset=".070603"/>
<stop offset=".13226"/>
<stop offset=".86334"/>
<stop stop-color="#241f31" offset=".94261"/>
<stop offset="1"/>
</linearGradient>
</defs>
<g transform="translate(0,-172)">
<g display="none">
<text x="7.9499588" y="148.65199" display="inline" enable-background="new" fill="#000000" font-family="Cantarell" font-size="5.3333px" stroke-width=".33265" style="line-height:125%" xml:space="preserve"><tspan x="7.9499588" y="148.65199" font-size="5.3333px" stroke-width=".33265">apps</tspan></text>
<text x="7.7533054" y="157.23398" display="inline" enable-background="new" fill="#000000" font-family="Cantarell" font-size="5.3333px" font-weight="bold" stroke-width=".33265" style="line-height:125%" xml:space="preserve"><tspan x="7.7533054" y="157.23398" font-size="5.3333px" stroke-width=".33265">org.gnome.</tspan></text>
<rect x="9.2651e-8" y="172" width="128" height="128" display="inline" enable-background="accumulate" fill="#f0f0f0"/>
<g transform="matrix(.25 0 0 .25 6.9489e-8 225)" fill="#2864b0">
<circle cx="256" cy="44" r="240" opacity=".1" style="paint-order:normal"/>
<rect x="96" y="-180" width="320" height="448" rx="32" ry="32" opacity=".1" style="paint-order:normal"/>
<rect x="48" y="-164" width="416" height="416" rx="32" ry="32" display="inline" enable-background="new" opacity=".1" style="paint-order:normal"/>
<rect x="32" y="-116" width="448" height="320" rx="32" ry="32" display="inline" enable-background="new" opacity=".1" style="paint-order:normal"/>
</g>
</g>
<g>
<rect x="36" y="268" width="56" height="24" ry="8" fill="url(#a)"/>
<rect x="36" y="180" width="56" height="104" ry="8" fill="#3d3846"/>
<rect x="44" y="184" width="12" height="11" ry="4" fill="#a51d2d"/>
<rect x="44" y="184" width="12" height="8" ry="4" fill="#e01b24"/>
<rect x="72" y="184" width="12" height="11" ry="4" enable-background="new" fill="#9a9996"/>
<rect x="72" y="184" width="12" height="8" ry="4" enable-background="new" fill="#c0bfbc"/>
<path d="m60 244c-1.679 0-5.6621-1.6621-5.6621-1.6621v4l6.832 6.832c0.723-0.723 1.7221-1.1699 2.8301-1.1699s2.1071 0.44692 2.8301 1.1699l6.832-6.832v-4s-4.0258 1.6621-5.6621 1.6621z" enable-background="new" fill="#9a9996"/>
<path d="m60 240c-2.216 0-4.2161 0.89189-5.6621 2.3379l6.832 6.832c0.723-0.723 1.7221-1.1699 2.8301-1.1699s2.1071 0.44692 2.8301 1.1699l6.832-6.832c-1.446-1.446-3.4461-2.3379-5.6621-2.3379z" fill="#c0bfbc"/>
<path d="m80 256c0-2.216-0.89189-4.2161-2.3379-5.6621l-6.832 2.832v4c0.723 0.723 1.1699 1.7221 1.1699 2.8301 0 0.23672 0.25866-0.69664 0-1-0.31977-0.37502-1.1699-0.16992-1.1699-0.16992s0.37757 3.6224 0 4l6.832 6.832c1.446-1.446 2.3379-3.4461 2.3379-5.6621z" enable-background="new" fill="#9a9996"/>
<path d="m80 252c0-2.216-0.89189-4.2161-2.3379-5.6621l-6.832 6.832c0.723 0.723 1.1699 1.7221 1.1699 2.8301s-0.44692 2.1071-1.1699 2.8301l6.832 6.832c1.446-1.446 2.3379-3.4461 2.3379-5.6621z" enable-background="new" fill="#c0bfbc"/>
<path d="m68 276c2.216 0 4.2161-0.89189 5.6621-2.3379v-4l-6.832-2.832c-0.723 0.723-1.7221 1.1699-2.8301 1.1699s-2.1071-0.44692-2.8301-1.1699l-6.832 2.832v4c1.446 1.446 3.4461 2.3379 5.6621 2.3379z" enable-background="new" fill="#9a9996"/>
<path d="m68 272c2.216 0 4.2161-0.89189 5.6621-2.3379l-6.832-6.832c-0.723 0.723-1.7221 1.1699-2.8301 1.1699s-2.1071-0.44692-2.8301-1.1699l-6.832 6.832c1.446 1.446 3.4461 2.3379 5.6621 2.3379z" enable-background="new" fill="#c0bfbc"/>
<path d="m48 264c0 2.216 0.89189 4.2161 2.3379 5.6621l6.832-6.832c-0.4216-0.4216 0-4 0-4s-0.87955-0.17858-1.1699 0.16992c-0.29456 0.35353 0 1.2326 0 1 0-1.108 0.44692-2.1071 1.1699-2.8301v-4l-6.832-2.832c-1.446 1.446-2.3379 3.4461-2.3379 5.6621z" enable-background="new" fill="#9a9996"/>
<path d="m48 260c0 2.216 0.89189 4.2161 2.3379 5.6621l6.832-6.832c-0.723-0.723-1.1699-1.7221-1.1699-2.8301s0.44692-2.1071 1.1699-2.8301l-6.832-6.832c-1.446 1.446-2.3379 3.4461-2.3379 5.6621z" enable-background="new" fill="#c0bfbc"/>
<rect x="44" y="200" width="8" height="12" rx="8" ry="4" fill="#9a9996"/>
<rect x="44" y="200" width="8" height="8" rx="8" ry="8" fill="#c0bfbc"/>
<rect x="60" y="200" width="8" height="12" rx="8" ry="4" enable-background="new" fill="#9a9996"/>
<rect x="60" y="200" width="8" height="8" rx="8" ry="8" enable-background="new" fill="#c0bfbc"/>
<rect x="76" y="200" width="8" height="12" rx="8" ry="4" enable-background="new" fill="#9a9996"/>
<rect x="76" y="200" width="8" height="8" rx="8" ry="8" enable-background="new" fill="#c0bfbc"/>
<rect x="44" y="216" width="8" height="12" rx="8" ry="4" enable-background="new" fill="#9a9996"/>
<rect x="44" y="216" width="8" height="8" rx="8" ry="8" enable-background="new" fill="#c0bfbc"/>
<rect x="60" y="216" width="8" height="12" rx="8" ry="4" enable-background="new" fill="#9a9996"/>
<rect x="60" y="216" width="8" height="8" rx="8" ry="8" enable-background="new" fill="#c0bfbc"/>
<rect x="76" y="216" width="8" height="12" rx="8" ry="4" enable-background="new" fill="#9a9996"/>
<rect x="76" y="216" width="8" height="8" rx="8" ry="8" enable-background="new" fill="#c0bfbc"/>
</g>
</g>
</svg>
